{"title":"The Lone Ranger (2013) 720p Hindi DD 5.1Ch Org By - RAJPUT (Team","uid":9138440,"size":2953041506,"categoryP":"video","categoryS":"hd___movies","magnet":"?xt=urn:btih:43d6a3a2be691b78e7a46aae0b3a9bc7567712ec&amp;dn=The+Lone+Ranger+%282013%29+720p+Hindi+DD+5.1Ch+Org+By+-+RAJPUT+%28Team&amp;tr=udp%3A%2F%2Ftracker.openbittorrent.com%3A80&amp;tr=udp%3A%2F%2Fopen.demonii.com%3A1337&amp;tr=udp%3A%2F%2Ftracker.coppersurfer.tk%3A6969&amp;tr=udp%3A%2F%2Fexodus.desync.com%3A6969","seeders":1,"leechers":0,"uploader":"hirenraj","files":13,"time":1383462972,"description":"General\nFormat                                   : Matroska\nFormat version                           : Version 4 / Version 2\nFile size                                : 2.73 GiB\nDuration                                 : 2h 29mn\nOverall bit rate                         : 2 610 Kbps\nMovie name                               : The Lone Ranger (2013) 720p Hindi-Eng DD 5.1Ch Org By - RAJPUT (Team-Gpsoft)\n\nVideo\nID                                       : 1\nFormat                                   : AVC\nFormat/Info                              : Advanced Video Codec\nFormat profile                           : &lt;a class=&quot;__cf_email__&quot; href=&quot;/cdn-cgi/l/email-protection&quot; data-cfemail=&quot;d79ab6beb9979be3f9e7&quot;&gt;[email&amp;#160;protected]&lt;/a&gt;&lt;script cf-hash='f9e31' type=&quot;text/javascript&quot;&gt;\n/* &lt;![CDATA[ */!function(){try{var t=&quot;currentScript&quot;in document?document.currentScript:function(){for(var t=document.getElementsByTagName(&quot;script&quot;),e=t.length;e--;)if(t[e].getAttribute(&quot;cf-hash&quot;))return t[e]}();if(t&amp;&amp;t.previousSibling){var e,r,n,i,c=t.previousSibling,a=c.getAttribute(&quot;data-cfemail&quot;);if(a){for(e=&quot;&quot;,r=parseInt(a.substr(0,2),16),n=2;a.length-n;n+=2)i=parseInt(a.substr(n,2),16)^r,e+=String.fromCharCode(i);e=document.createTextNode(e),c.parentNode.replaceChild(e,c)}}}catch(u){}}();/* ]]&gt; */&lt;/script&gt;\nFormat settings, CABAC                   : Yes\nFormat settings, ReFrames                : 4 frames\nCodec ID                                 : V_MPEG4/ISO/AVC\nDuration                                 : 2h 29mn\nBit rate                                 : 2 000 Kbps\nWidth                                    : 1 280 pixels\nHeight                                   : 534 pixels\nDisplay aspect ratio                     : 3.596\nFrame rate mode                          : Constant\nFrame rate                               : 23.976 fps\nColor space                              : YUV\nChroma subsampling                       : 4:2:0\nBit depth                                : 8 bits\nScan type                                : Progressive\nBits/(Pixel*Frame)                       : 0.122\nStream size                              : 2.04 GiB (75%)\nTitle                                    : The Lone Ranger (2013) 720p Hindi-Eng DD 5.1Ch Org By - RAJPUT (Team-Gpsoft)\nLanguage                                 : English\nDefault                                  : Yes\nForced                                   : No\n\nAudio #1\nID                                       : 2\nFormat                                   : AC-3\nFormat/Info                              : Audio Coding 3\nMode extension                           : CM (complete main)\nFormat settings, Endianness              : Big\nCodec ID                                 : A_AC3\nDuration                                 : 2h 29mn\nBit rate mode                            : Constant\nBit rate                                 : 384 Kbps\nChannel(s)                               : 6 channels\nChannel positions                        : Front: L C R, Side: L R, LFE\nSampling rate                            : 48.0 KHz\nBit depth                                : 16 bits\nCompression mode                         : Lossy\nStream size                              : 411 MiB (15%)\nTitle                                    : Dolby Digital 5.1Ch Org By - RAJPUT\nLanguage                                 : Hindi\nDefault                                  : Yes\nForced                                   : No\n\nAudio #2\nID                                       : 3\nFormat                                   : AC-3\nFormat/Info                              : Audio Coding 3\nMode extension                           : CM (complete main)\nFormat settings, Endianness              : Big\nCodec ID                                 : A_AC3\nDuration                                 : 2h 29mn\nBit rate mode                            : Constant\nBit rate                                 : 224 Kbps\nChannel(s)                               : 6 channels\nChannel positions                        : Front: L C R, Side: L R, LFE\nSampling rate                            : 48.0 KHz\nBit depth                                : 16 bits\nCompression mode                         : Lossy\nStream size                              : 240 MiB (9%)\nTitle                                    : Dolby Digital 5.1Ch Org By - RAJPUT\nLanguage                                 : English\nDefault                                  : No\nForced                                   : No\n\nText\nID                                       : 4\nFormat                                   : UTF-8\nCodec ID                                 : S_TEXT/UTF8\nCodec ID/Info                            : UTF-8 Plain Text\nTitle                                    : Subtitle\nLanguage                                 : English\nDefault                                  : No\nForced                                   : No\n\nMenu\n00:00:00.000                             : en:Chapter 1\n00:08:16.121                             : en:Chapter 2\n00:13:38.818                             : en:Chapter 3\n00:24:51.490                             : en:Chapter 4\n00:29:03.033                             : en:Chapter 5\n00:32:05.841                             : en:Chapter 6\n00:40:32.055                             : en:Chapter 7\n00:45:29.644                             : en:Chapter 8\n00:53:29.665                             : en:Chapter 9\n01:01:05.662                             : en:Chapter 10\n01:10:01.656                             : en:Chapter 11\n01:16:12.318                             : en:Chapter 12\n01:24:45.497                             : en:Chapter 13\n01:28:39.773                             : en:Chapter 14\n01:35:35.188                             : en:Chapter 15\n01:41:14.110                             : en:Chapter 16\n01:46:35.848                             : en:Chapter 17\n01:50:02.179                             : en:Chapter 18\n01:53:55.370                             : en:Chapter 19\n01:56:15.260                             : en:Chapter 20\n02:01:51.137                             : en:Chapter 21\n02:12:07.420                             : en:Chapter 22\n02:17:13.976                             : en:Chapter 23\n02:20:20.287                             : en:Chapter 24\n","torrent":{"xt":"urn:btih:43d6a3a2be691b78e7a46aae0b3a9bc7567712ec","amp;dn":"The+Lone+Ranger+%282013%29+720p+Hindi+DD+5.1Ch+Org+By+-+RAJPUT+%28Team","amp;tr":["udp%3A%2F%2Ftracker.openbittorrent.com%3A80","udp%3A%2F%2Fopen.demonii.com%3A1337","udp%3A%2F%2Ftracker.coppersurfer.tk%3A6969","udp%3A%2F%2Fexodus.desync.com%3A6969"],"infoHash":"43d6a3a2be691b78e7a46aae0b3a9bc7567712ec","infoHashBuffer":{"type":"Buffer","data":[67,214,163,162,190,105,27,120,231,164,106,174,11,58,155,199,86,119,18,236]},"announce":[],"urlList":[]}}